<svg height="400" width="400" xmlns="http://www.w3.org/2000/svg"><g fill-rule="evenodd"><path d="M175.2.386c0 .212.36.579.8.814s.8.588.8.782c0 .195.767 1.134 1.704 2.086 2.717 2.762 7.89 9.458 10.296 13.328a574.41 574.41 0 0 0 2.083 3.328c1.442 2.274 5.624 10.821 6.789 13.876.672 1.76 1.449 3.74 1.727 4.4.46 1.089 1.042 2.944 2.759 8.8.322 1.1.868 3.53 1.212 5.4s.785 4.21.979 5.2c1.391 7.068 1.414 23.18.045 30.8-.178.99-.532 2.97-.786 4.4-1.109 6.24-3.971 15.446-5.224 16.804-1.011 1.096-1.729 1.317-7.584 2.333a680.726 680.726 0 0 0-11.4 2.056 523.1 523.1 0 0 1-11.4 2.046c-1.43.239-4.163.779-6.074 1.198-1.91.42-3.981.763-4.602.763s-1.758.184-2.527.408c-.768.224-3.017.667-4.997.984-4.091.654-9.098 1.57-13.2 2.412-1.54.317-3.7.683-4.8.813-1.1.131-3.077.511-4.393.846l-2.393.607-11.807-3.889c-10.786-3.553-12.945-4.278-17.207-5.779-.77-.271-2.21-.736-3.2-1.033-2.749-.826-5.648-1.78-7.2-2.369-.77-.292-2.21-.789-3.2-1.105-.99-.315-8.324-2.76-16.298-5.434-7.973-2.674-14.768-4.861-15.1-4.861-.77 0-.772.561-.002 1.2.33.274.6.724.6 1s.29.743.645 1.037c.354.294.759.822.9 1.173.259.647 16.048 24.422 16.463 24.79.276.244 17.711 26.389 17.992 26.98.11.231.74 1.211 1.4 2.177.66.967 1.38 2.049 1.6 2.405 3.079 4.986 8.984 13.296 9.6 13.51 1.008.349 2.31.225 4.6-.438.99-.287 3.6-.931 5.8-1.432s5.17-1.223 6.6-1.606 3.5-.888 4.6-1.122 3.44-.785 5.2-1.224 4.1-1.005 5.2-1.258 2.72-.641 3.6-.862a664.556 664.556 0 0 1 8.8-2.122c1.54-.362 3.79-.914 5-1.227 1.21-.312 4.18-1.022 6.6-1.576 2.42-.555 5.39-1.284 6.6-1.62s3.01-.765 4-.953c1.956-.373 5.832-1.33 9-2.221 6.211-1.749 7.041-1.35 5.577 2.679-.582 1.6-1.305 3.786-1.607 4.856-.302 1.071-.713 2.151-.913 2.4-.201.25-.496 1.084-.657 1.854s-.456 1.604-.657 1.854c-.2.249-.614 1.329-.919 2.4-.305 1.07-1.382 4.286-2.394 7.146-1.013 2.86-2.38 6.82-3.038 8.8s-1.407 3.96-1.664 4.4-.605 1.43-.774 2.2c-.375 1.711-1.824 5.948-2.355 6.886-.214.378-.56 1.368-.769 2.2-.209.833-.846 2.774-1.416 4.314-1.191 3.218-3.665 10.356-4.505 13-.315.99-.808 2.25-1.095 2.8s-.655 1.624-.819 2.387c-.163.763-.451 1.663-.639 2-.353.631-1.722 4.485-2.349 6.613-.594 2.016-1.685 5.134-2.24 6.4-.29.66-1.01 2.64-1.602 4.4l-1.075 3.2-66.116 66c-36.364 36.3-69.698 69.524-74.076 73.831-4.378 4.308-8.075 8.133-8.216 8.5-.141.368-.533.669-.869.669a.608.608 0 0 0-.613.6c0 .721 1.596.82 1.609.1.005-.275 1.299-1.22 2.876-2.1s4.678-2.788 6.891-4.239c2.213-1.452 5.554-3.626 7.424-4.833 1.87-1.206 4.48-2.898 5.8-3.761 1.32-.862 2.71-1.747 3.088-1.967 1.452-.844 6.581-4.134 11.381-7.3 2.752-1.815 5.07-3.3 5.152-3.3.081 0 1.626-1.006 3.431-2.236 1.806-1.229 3.666-2.381 4.132-2.558.467-.177 1.089-.611 1.381-.964.293-.353.68-.642.86-.642s1.913-1.056 3.851-2.346a366.112 366.112 0 0 1 5.924-3.863c1.32-.834 3.57-2.273 5-3.198 4.844-3.131 9.39-6.052 11.8-7.579 1.32-.837 3.986-2.577 5.924-3.868 1.938-1.29 3.595-2.346 3.682-2.346s.841-.453 1.676-1.007a225.005 225.005 0 0 1 4.718-3.063c1.1-.701 3.44-2.202 5.2-3.335s4.28-2.744 5.6-3.581 3.986-2.577 5.924-3.868c1.938-1.29 3.68-2.346 3.871-2.346.192 0 .586-.225.876-.5.291-.275 1.249-.968 2.129-1.539l4-2.6c1.32-.859 2.715-1.741 3.101-1.961.791-.451 7.719-4.937 14.423-9.338 2.462-1.617 5.286-3.408 6.276-3.981.99-.574 1.89-1.142 2-1.263s.92-.687 1.8-1.258 2.676-1.741 3.991-2.599c1.315-.859 2.581-1.651 2.814-1.761.232-.11 2.036-1.263 4.008-2.562a749.885 749.885 0 0 1 5.587-3.646l4.267-2.737c2.162-1.387 3.933-3.507 3.933-4.708 0-.307.36-1.231.8-2.051.44-.821.8-1.699.8-1.951 0-.251.338-1.197.752-2.101s1.152-2.634 1.641-3.844 1.135-2.74 1.436-3.4c.68-1.492 3.295-7.915 3.99-9.8.284-.77.799-1.94 1.146-2.6s.631-1.41.633-1.668c.001-.257.263-.977.582-1.6.931-1.815 2.103-4.612 2.609-6.226.258-.822.636-1.598.84-1.724s.371-.5.371-.83c0-.331.468-1.625 1.039-2.877 1.931-4.228 2.161-4.795 2.164-5.335.001-.297.36-1.08.797-1.74s.796-1.45.797-1.756c.002-.306.341-1.296.755-2.2s1.152-2.634 1.641-3.844 1.133-2.74 1.431-3.4c.994-2.2 3.839-9.189 4.071-10 .126-.44.471-1.155.767-1.589s.544-1.064.551-1.4c.006-.336.455-1.511.996-2.611s.985-2.293.987-2.651.274-.875.604-1.149.6-.771.6-1.105.338-1.347.752-2.251c.709-1.549 1.276-2.919 3.289-7.944a95.086 95.086 0 0 1 1.582-3.7c.408-.88 1.188-2.773 1.734-4.207.547-1.434 1.274-3.144 1.616-3.8s.623-1.468.625-1.804c.001-.336.248-.966.548-1.4s.677-1.239.837-1.789c.326-1.121 1.556-4.015 2.437-5.732.319-.623.58-1.324.58-1.557s.342-1.163.76-2.067c.417-.904 1.238-2.814 1.822-4.244.585-1.43 1.323-3.078 1.641-3.662.317-.584.577-1.284.577-1.556s.338-1.234.752-2.138 1.116-2.544 1.561-3.644c4.579-11.328 4.448-11.113 7.087-11.576.88-.154 2.41-.532 3.4-.838 2.26-.7 6.768-1.763 9.443-2.226 1.124-.194 2.693-.625 3.487-.957.794-.331 1.989-.603 2.656-.603.666 0 2.247-.336 3.512-.747a54.473 54.473 0 0 1 4.502-1.216c5.893-1.259 8.922-1.992 14.2-3.438a58.77 58.77 0 0 1 4.301-.96c1.266-.227 2.616-.581 3-.786.385-.206 1.599-.495 2.699-.643s2.81-.517 3.8-.819c2.525-.772 6.605-1.754 9.2-2.216 1.21-.215 2.695-.589 3.301-.832.605-.242 2.225-.681 3.6-.975 5.958-1.273 8.22-1.797 10.099-2.342 1.997-.58 4.225-1.11 8-1.905 1.1-.231 3.07-.758 4.378-1.171 1.307-.412 2.747-.749 3.2-.749.452.001 2.082-.341 3.622-.759 5.277-1.433 6.404-1.709 9.097-2.225 1.484-.285 3.219-.734 3.857-.998 1.544-.639 3.493-.414 3.302.381-.079.33-.315 1.77-.525 3.2s-.73 4.501-1.156 6.824-.775 4.779-.775 5.457c0 .679-.289 2.633-.643 4.343-.612 2.958-.858 4.524-2.327 14.776-.347 2.42-.9 5.606-1.23 7.079s-.6 3.229-.6 3.901-.349 3.066-.777 5.321c-.883 4.665-1.441 8.207-2.061 13.099-.237 1.87-.677 4.39-.977 5.6s-.657 3.37-.792 4.8c-.136 1.43-.497 3.86-.802 5.4-.703 3.544-1.722 10.009-2.412 15.302-.294 2.256-.62 4.241-.726 4.411-.105.17-.387 1.835-.628 3.698a193.58 193.58 0 0 1-1.024 6.789c-.323 1.87-.973 5.65-1.444 8.4s-1.125 6.08-1.453 7.4c-.329 1.32-.739 3.212-.912 4.205a41.074 41.074 0 0 1-.904 3.8 130.326 130.326 0 0 0-2.085 7.913c-.294 1.275-.71 2.535-.923 2.8s-.513 1.112-.667 1.882c-.351 1.764-2.191 7.267-2.608 7.8-.172.22-.447 1.03-.612 1.8s-.636 2.027-1.046 2.794c-.411.767-.747 1.622-.747 1.902 0 .279-.36 1.179-.8 2-.44.82-.8 1.705-.8 1.966 0 .26-.257.983-.571 1.606-.314.622-2.849 5.722-5.632 11.332s-5.489 10.92-6.013 11.8-1.252 2.14-1.617 2.8c-2.272 4.1-15.332 22.911-16.524 23.8-.147.11-1.872 2.18-3.832 4.6-7.155 8.832-12.858 14.195-14.343 13.487-.86-.41-3.193-1.21-6.668-2.287-2.942-.912-5.709-1.834-7.2-2.4-1.552-.589-4.451-1.543-7.2-2.369a79.9 79.9 0 0 1-3.2-1.041c-3.814-1.361-5.13-1.807-6.6-2.233-.88-.255-2.23-.686-3-.958-4.063-1.434-5.717-1.988-9-3.013-1.98-.619-3.78-1.252-4-1.409s-1.03-.414-1.8-.573-1.94-.52-2.6-.803c-1.229-.527-3.807-1.411-7-2.401-3.031-.939-5.731-1.842-7.2-2.407-4.988-1.92-7.836-2.359-6.626-1.022.344.381.626.793.626.916 0 .202 23.371 35.32 28.92 43.455 1.254 1.839 2.28 3.421 2.28 3.517 0 .097.675 1.119 1.5 2.272.825 1.154 1.68 2.408 1.9 2.787 4.2 7.245 13.735 20.649 14.7 20.664.605.01 1.1-.15 1.1-.355s2.025-1.388 4.5-2.629 5.167-2.648 5.982-3.127l4.8-2.819c2.748-1.613 12.7-8.062 14.118-9.149 3.416-2.619 5.182-3.904 5.37-3.908.126-.003.982-.678 1.9-1.5a57.552 57.552 0 0 1 3.58-2.895c1.051-.77 2.388-1.85 2.972-2.4s2.742-2.44 4.796-4.2c3.982-3.412 14.289-13.604 17.038-16.846.91-1.075 2.08-2.421 2.6-2.991 1.893-2.081 4.959-5.695 5.528-6.518.321-.465.771-1.065 1-1.335.547-.644 1.428-1.793 3.614-4.71.989-1.32 2.018-2.659 2.286-2.975s1.22-1.666 2.115-3a372.006 372.006 0 0 1 2.46-3.625c.988-1.423 3.772-5.711 4.341-6.685 3.024-5.182 4.532-7.821 4.751-8.315.146-.33.693-1.32 1.216-2.2 1.106-1.86 4.881-9.36 6.392-12.7.573-1.265 1.491-3.279 2.041-4.475.55-1.197 1-2.367 1-2.602 0-.234.36-1.098.8-1.919.44-.82.8-1.774.8-2.118s.176-.802.391-1.017c.413-.413 1.761-4.075 2.492-6.769.239-.88.602-1.815.807-2.078.205-.264.61-1.434.9-2.6.291-1.167.751-2.752 1.023-3.522 1.656-4.683 1.986-5.739 1.981-6.336-.003-.365.341-1.834.764-3.264.699-2.361 1.091-4.042 3.026-13 .333-1.54.791-4.15 1.018-5.8s.589-3.541.804-4.202.562-2.461.77-4a121 121 0 0 1 .967-5.798c.823-4.192 1.37-7.227 2.048-11.357.322-1.957.763-4.117.98-4.8.217-.684.507-2.413.645-3.843s.492-3.41.786-4.4c.295-.99.653-2.88.797-4.2.143-1.32.505-3.3.804-4.4s.658-3.17.797-4.6c.14-1.43.497-3.41.794-4.4.296-.99.655-2.942.797-4.337.141-1.396.414-2.95.605-3.453.192-.504.542-2.332.778-4.063s.692-4.317 1.013-5.747c.322-1.43.786-3.77 1.033-5.2 1.593-9.235 2.017-11.639 2.394-13.6.999-5.186 1.305-6.836 2.037-11 .426-2.42 1.023-5.97 1.327-7.889s.738-4.079.965-4.8.526-2.391.665-3.711.496-3.3.793-4.4c.296-1.1.659-3.08.806-4.4s.504-3.231.793-4.246c.288-1.015.657-3.085.818-4.6s.538-3.452.837-4.304c.3-.853.548-2.113.552-2.8.004-.688.284-2.51.624-4.05.339-1.54.847-4.41 1.129-6.379.282-1.968.721-3.648.976-3.733.297-.099.464-1.238.464-3.167v-3.012l-1.9.262c-1.045.145-3.07.514-4.5.821-4.228.908-9.629 1.9-12.2 2.241-1.32.175-3.473.599-4.784.943-1.311.343-2.909.624-3.551.624-.641 0-2.718.34-4.615.755-1.898.415-4.62.955-6.05 1.198-5.17.882-7.47 1.293-11.4 2.038-5.395 1.022-8.112 1.504-12.523 2.224-2.048.334-4.741.872-5.984 1.196-1.244.324-2.718.587-3.277.584s-2.276.259-3.816.583a287.055 287.055 0 0 1-13.259 2.432c-2.012.318-4.139.761-4.726.984s-1.64.409-2.341.413-2.534.282-4.074.618-4.33.871-6.2 1.189c-1.87.317-4.39.771-5.6 1.009-8.279 1.624-10.306 1.984-11.126 1.981-.51-.002-2.49.338-4.4.757-1.911.419-5.724 1.148-8.474 1.621s-6.17 1.122-7.6 1.442c-3.731.836-6.86.602-5.251-.393.199-.123.479-.72.62-1.327.142-.607.515-1.644.828-2.304 1.1-2.318 3.803-8.805 3.803-9.125 0-.347 1.648-4.132 2.616-6.007.321-.623.584-1.324.584-1.557s.379-1.253.843-2.267c2.698-5.9 3.461-7.892 4.387-11.444.996-3.823 1.408-10.743.822-13.8-.838-4.371-1.621-7.38-2.284-8.776-.372-.783-1.057-2.23-1.522-3.216-2.637-5.585-10.358-13.532-15.187-15.632a16.79 16.79 0 0 1-1.459-.727c-1.144-.671-3.809-1.742-5.6-2.249-.99-.28-2.43-.731-3.2-1.002-4.188-1.475-5.725-1.99-9-3.021-1.98-.622-3.87-1.264-4.2-1.425-.597-.291-2.968-1.088-6.4-2.152-2.942-.912-5.709-1.834-7.2-2.4-1.552-.589-4.451-1.543-7.2-2.369a79.9 79.9 0 0 1-3.2-1.041c-3.814-1.361-5.13-1.807-6.6-2.233-.88-.255-2.23-.686-3-.958-4.085-1.442-5.718-1.988-9-3.009-1.98-.615-3.8-1.36-4.044-1.655-.508-.612-2.556-.732-2.556-.149" fill="#f2ebe4"/><path d="M0 199.4c0 178.794.063 199.4.613 199.4.336 0 .728-.301.869-.669.141-.367 3.838-4.192 8.216-8.5 4.378-4.307 37.712-37.531 74.076-73.831l66.116-66 1.075-3.2c.592-1.76 1.312-3.74 1.602-4.4.555-1.266 1.646-4.384 2.24-6.4.627-2.128 1.996-5.982 2.349-6.613.188-.337.476-1.237.639-2 .164-.763.532-1.837.819-2.387s.78-1.81 1.095-2.8c.84-2.644 3.314-9.782 4.505-13 .57-1.54 1.207-3.481 1.416-4.314.209-.832.555-1.822.769-2.2.531-.938 1.98-5.175 2.355-6.886.169-.77.517-1.76.774-2.2s1.006-2.42 1.664-4.4 2.025-5.94 3.038-8.8c1.012-2.86 2.089-6.076 2.394-7.146.305-1.071.719-2.151.919-2.4.201-.25.496-1.084.657-1.854s.456-1.604.657-1.854c.2-.249.611-1.329.913-2.4.302-1.07 1.025-3.256 1.607-4.856 1.464-4.029.634-4.428-5.577-2.679-3.168.891-7.044 1.848-9 2.221-.99.188-2.79.617-4 .953s-4.18 1.065-6.6 1.62c-2.42.554-5.39 1.264-6.6 1.576-1.21.313-3.46.865-5 1.227-1.54.363-3.79.902-5 1.198s-3.1.746-4.2 1-2.72.642-3.6.861c-5.362 1.34-8.235 2.032-10 2.407-1.1.234-3.17.739-4.6 1.122s-4.4 1.105-6.6 1.606-4.81 1.145-5.8 1.432c-2.29.663-3.592.787-4.6.438-.616-.214-6.521-8.524-9.6-13.51-.22-.356-.94-1.438-1.6-2.405-.66-.966-1.29-1.946-1.4-2.177-.281-.591-17.716-26.736-17.992-26.98-.415-.368-16.204-24.143-16.463-24.79-.141-.351-.546-.879-.9-1.173-.355-.294-.645-.761-.645-1.037s-.27-.726-.6-1c-.77-.639-.768-1.2.002-1.2.332 0 7.127 2.187 15.1 4.861 7.974 2.674 15.308 5.119 16.298 5.434.99.316 2.43.813 3.2 1.105 1.552.589 4.451 1.543 7.2 2.369.99.297 2.43.762 3.2 1.033 4.262 1.501 6.421 2.226 17.207 5.779l11.807 3.889 2.393-.607c1.316-.335 3.293-.715 4.393-.846 1.1-.13 3.26-.496 4.8-.813a328.077 328.077 0 0 1 13.2-2.412c1.98-.317 4.229-.76 4.997-.984.769-.224 1.906-.408 2.527-.408s2.692-.343 4.602-.763c1.911-.419 4.644-.959 6.074-1.198a523.1 523.1 0 0 0 11.4-2.046 680.726 680.726 0 0 1 11.4-2.056c5.855-1.016 6.573-1.237 7.584-2.333 1.253-1.358 4.115-10.564 5.224-16.804.254-1.43.608-3.41.786-4.4 1.369-7.62 1.346-23.732-.045-30.8-.194-.99-.635-3.33-.979-5.2s-.89-4.3-1.212-5.4c-1.717-5.856-2.299-7.711-2.759-8.8-.278-.66-1.055-2.64-1.727-4.4-1.165-3.055-5.347-11.602-6.789-13.876a574.41 574.41 0 0 1-2.083-3.328c-2.406-3.87-7.579-10.566-10.296-13.328-.937-.952-1.704-1.831-1.704-1.954 0-.122-.459-.648-1.021-1.168L174.759 0H0zM177.683.448c.082.246 1.762.966 3.733 1.599s4.124 1.352 4.784 1.597c.66.246 2.01.688 3 .983s2.7.846 3.8 1.224l4 1.371c1.1.375 2.63.904 3.4 1.176.77.271 2.21.736 3.2 1.033 2.749.826 5.648 1.78 7.2 2.369 1.491.566 4.258 1.488 7.2 2.4 3.432 1.064 5.803 1.861 6.4 2.152.33.161 2.22.803 4.2 1.425 3.275 1.031 4.812 1.546 9 3.021.77.271 2.21.722 3.2 1.002 1.791.507 4.456 1.578 5.6 2.249.33.194.987.521 1.459.727 4.829 2.1 12.55 10.047 15.187 15.632.465.986 1.15 2.433 1.522 3.216.663 1.396 1.446 4.405 2.284 8.776.586 3.057.174 9.977-.822 13.8-.926 3.552-1.689 5.544-4.387 11.444-.464 1.014-.843 2.034-.843 2.267s-.263.934-.584 1.557c-.968 1.875-2.616 5.66-2.616 6.007 0 .32-2.703 6.807-3.803 9.125-.313.66-.686 1.697-.828 2.304-.141.607-.421 1.204-.62 1.327-1.609.995 1.52 1.229 5.251.393 1.43-.32 4.85-.969 7.6-1.442s6.563-1.202 8.474-1.621c1.91-.419 3.89-.759 4.4-.757.82.003 2.847-.357 11.126-1.981 1.21-.238 3.73-.692 5.6-1.009 1.87-.318 4.66-.853 6.2-1.189s3.373-.614 4.074-.618 1.754-.19 2.341-.413 2.714-.666 4.726-.984a287.055 287.055 0 0 0 13.259-2.432c1.54-.324 3.257-.586 3.816-.583s2.033-.26 3.277-.584c1.243-.324 3.936-.862 5.984-1.196 4.375-.714 7.073-1.192 12.523-2.222 3.712-.702 5.663-1.054 11.4-2.059 1.21-.212 4-.726 6.2-1.141 3.712-.702 5.663-1.054 11.4-2.059 2.212-.388 8.31-1.524 12.4-2.311 1.21-.232 3.415-.625 4.9-.871l2.7-.449V0H288.767c-81.886 0-111.194.118-111.084.448M399.016 81.7c-.109.495-.372 2.16-.584 3.7a85.635 85.635 0 0 1-1.001 5.6c-.34 1.54-.62 3.362-.624 4.05-.004.687-.252 1.947-.552 2.8-.299.852-.676 2.789-.837 4.304s-.53 3.585-.818 4.6c-.289 1.015-.646 2.926-.793 4.246s-.51 3.3-.806 4.4c-.297 1.1-.654 3.08-.793 4.4s-.438 2.99-.665 3.711-.661 2.881-.965 4.8a572.054 572.054 0 0 1-1.327 7.889c-.732 4.164-1.038 5.814-2.037 11-.377 1.961-.801 4.365-2.394 13.6-.247 1.43-.711 3.77-1.033 5.2-.321 1.43-.777 4.016-1.013 5.747s-.586 3.559-.778 4.063c-.191.503-.464 2.057-.605 3.453-.142 1.395-.501 3.347-.797 4.337-.297.99-.654 2.97-.794 4.4-.139 1.43-.498 3.5-.797 4.6s-.661 3.08-.804 4.4c-.144 1.32-.502 3.21-.797 4.2-.294.99-.648 2.97-.786 4.4s-.428 3.159-.645 3.843c-.217.683-.658 2.843-.98 4.8a337.094 337.094 0 0 1-2.048 11.357 121 121 0 0 0-.967 5.798c-.208 1.539-.555 3.339-.77 4s-.577 2.552-.804 4.202a93.665 93.665 0 0 1-1.018 5.8c-1.935 8.958-2.327 10.639-3.026 13-.423 1.43-.767 2.899-.764 3.264.005.597-.325 1.653-1.981 6.336-.272.77-.732 2.355-1.023 3.522-.29 1.166-.695 2.336-.9 2.6-.205.263-.568 1.198-.807 2.078-.731 2.694-2.079 6.356-2.492 6.769-.215.215-.391.673-.391 1.017s-.36 1.298-.8 2.118c-.44.821-.8 1.685-.8 1.919 0 .235-.45 1.405-1 2.602-.55 1.196-1.468 3.21-2.041 4.475-1.511 3.34-5.286 10.84-6.392 12.7-.523.88-1.07 1.87-1.216 2.2-.219.494-1.727 3.133-4.751 8.315-.569.974-3.353 5.262-4.341 6.685-.458.66-1.565 2.291-2.46 3.625s-1.847 2.684-2.115 3-1.297 1.655-2.286 2.975c-2.186 2.917-3.067 4.066-3.614 4.71-.229.27-.679.87-1 1.335-.569.823-3.635 4.437-5.528 6.518-.52.57-1.69 1.916-2.6 2.991-2.749 3.242-13.056 13.434-17.038 16.846-2.054 1.76-4.212 3.65-4.796 4.2s-1.921 1.63-2.972 2.4a57.552 57.552 0 0 0-3.58 2.895c-.918.822-1.774 1.497-1.9 1.5-.188.004-1.954 1.289-5.37 3.908-1.418 1.087-11.37 7.536-14.118 9.149l-4.8 2.819c-.815.479-3.507 1.886-5.982 3.127s-4.5 2.424-4.5 2.629c0 .229 28.491.373 74 .373h74V240.4c0-149.331-.083-162.774-.984-158.7m-48.296 33.111c-.375.224-1.995.658-3.6.966-2.913.557-4.03.829-9.32 2.265-1.54.418-3.17.76-3.622.759-.453 0-1.893.337-3.2.749-1.308.413-3.278.94-4.378 1.171-3.775.795-6.003 1.325-8 1.905-1.879.545-4.141 1.069-10.099 2.342-1.375.294-2.995.733-3.6.975-.606.243-2.091.617-3.301.832-2.595.462-6.675 1.444-9.2 2.216-.99.302-2.7.671-3.8.819s-2.314.437-2.699.643c-.384.205-1.734.559-3 .786a58.77 58.77 0 0 0-4.301.96c-5.278 1.446-8.307 2.179-14.2 3.438-1.21.258-3.236.805-4.502 1.216-1.265.411-2.846.747-3.512.747-.667 0-1.862.272-2.656.603-.794.332-2.363.763-3.487.957-2.675.463-7.183 1.526-9.443 2.226-.99.306-2.52.684-3.4.838-2.639.463-2.508.248-7.087 11.576-.445 1.1-1.147 2.74-1.561 3.644s-.752 1.866-.752 2.138-.26.972-.577 1.556c-.318.584-1.056 2.232-1.641 3.662-.584 1.43-1.405 3.34-1.822 4.244-.418.904-.76 1.834-.76 2.067s-.261.934-.58 1.557c-.881 1.717-2.111 4.611-2.437 5.732-.16.55-.537 1.355-.837 1.789s-.547 1.064-.548 1.4c-.002.336-.283 1.148-.625 1.804s-1.069 2.366-1.616 3.8c-.546 1.434-1.326 3.327-1.734 4.207-.69 1.492-1.3 2.963-3.318 8-.44 1.1-1.139 2.74-1.553 3.644s-.752 1.917-.752 2.251-.27.831-.6 1.105-.602.791-.604 1.149-.446 1.551-.987 2.651-.99 2.275-.996 2.611c-.007.336-.255.966-.551 1.4s-.641 1.149-.767 1.589c-.232.811-3.077 7.8-4.071 10-.298.66-.942 2.19-1.431 3.4s-1.227 2.94-1.641 3.844-.753 1.894-.755 2.2c-.001.306-.36 1.096-.797 1.756s-.796 1.443-.797 1.74c-.003.54-.233 1.107-2.164 5.335-.571 1.252-1.039 2.546-1.039 2.877 0 .33-.167.704-.371.83s-.582.902-.84 1.724c-.506 1.614-1.678 4.411-2.609 6.226-.319.623-.581 1.343-.582 1.6-.002.258-.286 1.008-.633 1.668s-.862 1.83-1.146 2.6c-.695 1.885-3.31 8.308-3.99 9.8-.301.66-.947 2.19-1.436 3.4s-1.227 2.94-1.641 3.844-.752 1.85-.752 2.101c0 .252-.36 1.13-.8 1.951-.44.82-.8 1.744-.8 2.051 0 1.201-1.771 3.321-3.933 4.708l-4.267 2.737c-1.1.706-3.614 2.347-5.587 3.646-1.972 1.299-3.776 2.452-4.008 2.562-.233.11-1.499.902-2.814 1.761-1.315.858-3.111 2.028-3.991 2.599s-1.69 1.137-1.8 1.258-1.01.689-2 1.263c-.99.573-3.814 2.364-6.276 3.981-6.704 4.401-13.632 8.887-14.423 9.338-.386.22-1.781 1.102-3.101 1.961l-4 2.6c-.88.571-1.838 1.264-2.129 1.539-.29.275-.684.5-.876.5-.191 0-1.933 1.056-3.871 2.346a392.116 392.116 0 0 1-5.924 3.868c-1.32.837-3.84 2.448-5.6 3.581s-4.1 2.634-5.2 3.335c-2.441 1.557-2.8 1.79-4.718 3.063-.835.554-1.589 1.007-1.676 1.007s-1.744 1.056-3.682 2.346a392.116 392.116 0 0 1-5.924 3.868c-2.41 1.527-6.956 4.448-11.8 7.579-1.43.925-3.68 2.364-5 3.198s-3.986 2.572-5.924 3.863c-1.938 1.29-3.671 2.346-3.851 2.346s-.567.289-.86.642c-.292.353-.914.787-1.381.964-.466.177-2.326 1.329-4.132 2.558-1.805 1.23-3.35 2.236-3.431 2.236-.082 0-2.4 1.485-5.152 3.3-4.8 3.166-9.929 6.456-11.381 7.3-.378.22-1.768 1.105-3.088 1.967-1.32.863-3.93 2.555-5.8 3.761-1.87 1.207-5.211 3.381-7.424 4.833-2.213 1.451-5.314 3.359-6.891 4.239s-2.871 1.825-2.876 2.1c-.007.399 25.053.5 123.991.5 68.2 0 124-.108 124-.24 0-.133-3.015-4.76-6.7-10.283-3.685-5.524-6.774-10.23-6.864-10.46-.091-.229-.856-1.354-1.7-2.5-.845-1.146-1.536-2.161-1.536-2.258 0-.096-1.026-1.678-2.28-3.517-5.549-8.135-28.92-43.253-28.92-43.455 0-.123-.282-.535-.626-.916-1.21-1.337 1.638-.898 6.626 1.022 1.469.565 4.169 1.468 7.2 2.407 3.193.99 5.771 1.874 7 2.401.66.283 1.83.644 2.6.803s1.58.416 1.8.573 2.02.79 4 1.409c3.283 1.025 4.937 1.579 9 3.013.77.272 2.12.703 3 .958 1.47.426 2.786.872 6.6 2.233a79.9 79.9 0 0 0 3.2 1.041c2.749.826 5.648 1.78 7.2 2.369 1.491.566 4.258 1.488 7.2 2.4 3.475 1.077 5.808 1.877 6.668 2.287 1.485.708 7.188-4.655 14.343-13.487 1.96-2.42 3.685-4.49 3.832-4.6 1.192-.889 14.252-19.7 16.524-23.8.365-.66 1.093-1.92 1.617-2.8s3.23-6.19 6.013-11.8 5.318-10.71 5.632-11.332c.314-.623.571-1.346.571-1.606 0-.261.36-1.146.8-1.966.44-.821.8-1.721.8-2 0-.28.336-1.135.747-1.902.41-.767.881-2.024 1.046-2.794s.44-1.58.612-1.8c.417-.533 2.257-6.036 2.608-7.8.154-.77.454-1.617.667-1.882s.629-1.525.923-2.8a130.326 130.326 0 0 1 2.085-7.913c.325-1.097.731-2.807.904-3.8s.583-2.885.912-4.205c.328-1.32.982-4.65 1.453-7.4s1.121-6.53 1.444-8.4.784-4.925 1.024-6.789c.241-1.863.523-3.528.628-3.698.106-.17.432-2.155.726-4.411.69-5.293 1.709-11.758 2.412-15.302.305-1.54.666-3.97.802-5.4.135-1.43.492-3.59.792-4.8s.74-3.73.977-5.6c.62-4.892 1.178-8.434 2.061-13.099.428-2.255.777-4.649.777-5.321s.27-2.428.6-3.901.883-4.659 1.23-7.079c1.469-10.252 1.715-11.818 2.327-14.776.354-1.71.643-3.664.643-4.343 0-.678.349-3.134.775-5.457s.946-5.394 1.156-6.824.446-2.87.525-3.2c.175-.731-2.286-1.018-3.336-.389" fill="#53231b"/></g></svg>