<svg height="16" width="16" xmlns="http://www.w3.org/2000/svg"><g fill-rule="evenodd"><path d="M7.008.015c0 .009.014.024.032.033.018.01.032.024.032.031 0 .008.03.046.068.084.109.11.316.378.412.533a22.976 22.976 0 0 0 .083.133 5.374 5.374 0 0 1 .341.731 4.261 4.261 0 0 1 .159.568l.039.208c.056.283.057.927.002 1.232l-.032.176c-.044.25-.159.618-.209.672-.04.044-.069.053-.303.093a27.229 27.229 0 0 0-.456.083 20.924 20.924 0 0 1-.456.082c-.057.01-.167.03-.243.047-.076.017-.16.031-.184.031a.442.442 0 0 0-.101.016c-.03.01-.12.027-.2.04-.164.026-.364.062-.528.096a2.836 2.836 0 0 1-.192.033 1.5 1.5 0 0 0-.176.034l-.095.024-.473-.156a30.658 30.658 0 0 1-.688-.23 1.935 1.935 0 0 0-.128-.042 5.069 5.069 0 0 1-.288-.095 14.048 14.048 0 0 0-1.384-.456c-.03 0-.03.022 0 .048.013.011.024.029.024.04s.012.03.026.041c.014.012.03.033.036.047.01.026.642.977.658.992a74.44 74.44 0 0 1 .84 1.262c.123.2.36.532.384.54.04.015.092.01.184-.017a6.85 6.85 0 0 1 .232-.057 9.06 9.06 0 0 0 .264-.064c.057-.015.14-.036.184-.045a7.8 7.8 0 0 0 .208-.049 14.775 14.775 0 0 1 .352-.085 26.582 26.582 0 0 1 .352-.085c.062-.014.152-.036.2-.049l.264-.063a7.98 7.98 0 0 0 .264-.065c.048-.013.12-.03.16-.038.078-.015.233-.053.36-.089.248-.07.282-.054.223.108a3.487 3.487 0 0 0-.064.194.423.423 0 0 1-.037.096.238.238 0 0 0-.026.074.238.238 0 0 1-.026.074.426.426 0 0 0-.037.096 7.17 7.17 0 0 1-.096.286c-.04.114-.095.273-.121.352a1.63 1.63 0 0 1-.067.176.375.375 0 0 0-.03.088 1.77 1.77 0 0 1-.095.275.461.461 0 0 0-.03.088 2.207 2.207 0 0 1-.057.173c-.048.129-.147.414-.18.52a.89.89 0 0 1-.044.112.458.458 0 0 0-.033.095.376.376 0 0 1-.026.08c-.014.026-.069.18-.094.265a2.89 2.89 0 0 1-.09.256c-.01.026-.04.106-.063.176l-.043.128-2.645 2.64a1633.475 1633.475 0 0 1-2.963 2.953 5.248 5.248 0 0 0-.329.34c-.005.015-.021.027-.034.027a.024.024 0 0 0-.025.024c0 .029.064.033.064.004 0-.011.052-.049.115-.084s.188-.112.276-.17a57.44 57.44 0 0 1 .653-.422c.058-.034.263-.165.455-.292a4.5 4.5 0 0 1 .206-.132c.003 0 .065-.04.137-.09.072-.049.147-.095.165-.102a.156.156 0 0 0 .056-.038c.011-.014.027-.026.034-.026.007 0 .077-.042.154-.094a14.644 14.644 0 0 1 .237-.154 15.685 15.685 0 0 0 .909-.586 2.316 2.316 0 0 1 .214-.134 9 9 0 0 1 .189-.123 68.753 68.753 0 0 0 .669-.431c.077-.052.147-.094.155-.094.007 0 .023-.009.035-.02a.846.846 0 0 1 .085-.062l.16-.104c.053-.034.109-.07.124-.078.032-.018.309-.197.577-.374A7.648 7.648 0 0 1 6 12.16a.809.809 0 0 1 .072-.05l.16-.104a2.2 2.2 0 0 1 .112-.07c.01-.004.082-.05.16-.102a29.995 29.995 0 0 1 .224-.146l.17-.11c.087-.055.158-.14.158-.188 0-.012.014-.05.032-.082a.293.293 0 0 0 .032-.078c0-.01.014-.048.03-.084.017-.036.046-.106.066-.154.02-.048.045-.11.057-.136.027-.06.132-.317.16-.392a.989.989 0 0 1 .046-.104.227.227 0 0 0 .025-.067c0-.01.01-.039.023-.064.037-.072.084-.184.105-.249a.181.181 0 0 1 .033-.069c.008-.005.015-.02.015-.033a.52.52 0 0 1 .042-.115c.077-.17.086-.192.086-.213a.2.2 0 0 1 .032-.07.192.192 0 0 0 .032-.07c0-.012.014-.052.03-.088.017-.036.046-.106.066-.154.02-.048.045-.11.057-.136.04-.088.154-.368.163-.4a.268.268 0 0 1 .03-.064.13.13 0 0 0 .023-.056c0-.013.018-.06.04-.104a.412.412 0 0 0 .039-.106.07.07 0 0 1 .024-.046c.013-.011.024-.03.024-.044a.34.34 0 0 1 .03-.09c.028-.062.051-.117.132-.318a3.803 3.803 0 0 1 .063-.148c.016-.035.047-.11.07-.168.021-.058.05-.126.064-.152a.22.22 0 0 0 .025-.072c0-.014.01-.04.022-.056a.297.297 0 0 0 .033-.072 1.85 1.85 0 0 1 .098-.23.217.217 0 0 0 .023-.062c0-.009.014-.046.03-.082a5.22 5.22 0 0 0 .073-.17 2.09 2.09 0 0 1 .066-.146.19.19 0 0 0 .023-.063c0-.01.014-.05.03-.085.017-.036.045-.102.063-.146.183-.453.177-.445.283-.463.035-.006.096-.021.136-.034a3.9 3.9 0 0 1 .378-.089.79.79 0 0 0 .14-.038.337.337 0 0 1 .105-.024.61.61 0 0 0 .14-.03 2.179 2.179 0 0 1 .181-.049c.236-.05.357-.08.568-.137a2.35 2.35 0 0 1 .172-.038.608.608 0 0 0 .12-.032.448.448 0 0 1 .108-.026 1.16 1.16 0 0 0 .152-.032c.101-.031.264-.07.368-.089a.871.871 0 0 0 .132-.033 1.2 1.2 0 0 1 .144-.04c.238-.05.329-.071.404-.093.08-.023.169-.044.32-.076.044-.01.123-.03.175-.047a.668.668 0 0 1 .128-.03.925.925 0 0 0 .145-.03 3.99 3.99 0 0 1 .364-.09.844.844 0 0 0 .154-.04c.062-.025.14-.016.132.016a9.91 9.91 0 0 1-.067.401 2.016 2.016 0 0 0-.031.218c0 .027-.012.106-.026.174a8.954 8.954 0 0 0-.093.591 4.691 4.691 0 0 1-.049.283.992.992 0 0 0-.024.156c0 .027-.014.123-.031.213a7.946 7.946 0 0 0-.083.524 2.256 2.256 0 0 1-.039.224 1.589 1.589 0 0 0-.031.192c-.006.057-.02.154-.032.216-.028.142-.07.4-.097.612-.012.09-.025.17-.029.177a1.114 1.114 0 0 0-.025.147 7.743 7.743 0 0 1-.041.272l-.058.336a5.86 5.86 0 0 1-.058.296 2.38 2.38 0 0 0-.036.168 1.643 1.643 0 0 1-.036.152 5.213 5.213 0 0 0-.084.317.456.456 0 0 1-.037.112.232.232 0 0 0-.026.075 2.08 2.08 0 0 1-.105.312.253.253 0 0 0-.024.072.516.516 0 0 1-.042.112.26.26 0 0 0-.03.076.284.284 0 0 1-.032.08.289.289 0 0 0-.032.078c0 .01-.01.04-.023.065l-.225.453c-.111.224-.22.437-.24.472-.022.035-.05.086-.065.112-.091.164-.614.916-.661.952a4.833 4.833 0 0 0-.154.184c-.286.353-.514.568-.573.54a2.8 2.8 0 0 0-.267-.092 5.755 5.755 0 0 1-.288-.096 5.069 5.069 0 0 0-.288-.095 3.196 3.196 0 0 1-.128-.041 4.46 4.46 0 0 0-.264-.09 2.662 2.662 0 0 1-.12-.038 8.526 8.526 0 0 0-.36-.12 1.445 1.445 0 0 1-.16-.057.277.277 0 0 0-.072-.023.655.655 0 0 1-.104-.032 3.514 3.514 0 0 0-.28-.096 5.332 5.332 0 0 1-.288-.096c-.2-.077-.313-.095-.265-.041a1.92 1.92 0 0 1 1.273 1.916c0 .003.027.044.06.09s.067.097.076.112c.168.29.55.826.588.826.024 0 .044-.006.044-.014s.081-.055.18-.105c.099-.05.207-.106.24-.125l.191-.113c.11-.064.508-.322.565-.366.137-.105.207-.156.215-.156.005 0 .04-.027.076-.06a2.302 2.302 0 0 1 .143-.116c.042-.03.096-.074.119-.096a10.256 10.256 0 0 0 .873-.842l.104-.12a4.843 4.843 0 0 0 .261-.314c.022-.025.057-.071.145-.188l.091-.119a2.28 2.28 0 0 0 .085-.12 14.88 14.88 0 0 1 .098-.145c.04-.057.151-.228.174-.267a9.106 9.106 0 0 0 .239-.421 8.824 8.824 0 0 0 .337-.687.564.564 0 0 0 .04-.104.3.3 0 0 1 .032-.077.272.272 0 0 0 .032-.085c0-.013.007-.032.016-.04.016-.017.07-.163.1-.271a.334.334 0 0 1 .032-.083.445.445 0 0 0 .036-.104c.011-.047.03-.11.04-.141.067-.187.08-.23.08-.253 0-.015.013-.074.03-.131a6.988 6.988 0 0 0 .162-.752c.01-.066.024-.142.032-.168a1.25 1.25 0 0 0 .031-.16 4.84 4.84 0 0 1 .039-.232c.033-.168.055-.29.082-.454.013-.079.03-.165.039-.192a.987.987 0 0 0 .026-.154 1.15 1.15 0 0 1 .031-.176 1.16 1.16 0 0 0 .032-.168 1.42 1.42 0 0 1 .032-.176c.012-.044.026-.127.032-.184a1.19 1.19 0 0 1 .032-.176c.012-.04.026-.118.032-.173a.78.78 0 0 1 .024-.139 1.16 1.16 0 0 0 .031-.162c.01-.07.028-.173.04-.23.013-.057.032-.15.042-.208.064-.37.08-.466.096-.544a21.72 21.72 0 0 0 .134-.756c.012-.076.03-.163.039-.192a.974.974 0 0 0 .026-.148 1.37 1.37 0 0 1 .032-.176 1.42 1.42 0 0 0 .032-.176 1.2 1.2 0 0 1 .032-.17c.012-.04.026-.123.033-.184a.97.97 0 0 1 .033-.172.421.421 0 0 0 .022-.112c0-.028.012-.1.025-.162.014-.062.034-.176.045-.255.012-.079.03-.146.04-.15.011-.003.018-.049.018-.126v-.12l-.076.01a2.66 2.66 0 0 0-.18.033 8.56 8.56 0 0 1-.488.09 1.893 1.893 0 0 0-.191.037.765.765 0 0 1-.142.025 1.35 1.35 0 0 0-.185.03 6.495 6.495 0 0 1-.242.048c-.207.035-.299.052-.456.082-.216.04-.324.06-.5.089-.083.013-.19.034-.24.047a.714.714 0 0 1-.131.024c-.023 0-.091.01-.153.023a11.482 11.482 0 0 1-.53.097 1.5 1.5 0 0 0-.19.04.322.322 0 0 1-.093.016c-.028 0-.101.012-.163.025a6.647 6.647 0 0 1-.248.048c-.075.012-.176.03-.224.04-.331.065-.412.08-.445.08-.02 0-.1.013-.176.03a9.44 9.44 0 0 1-.339.064c-.11.02-.247.045-.304.058-.15.033-.274.024-.21-.016.008-.005.02-.029.025-.053a.56.56 0 0 1 .033-.092c.044-.093.152-.352.152-.365 0-.014.066-.165.105-.24a.216.216 0 0 0 .023-.063c0-.009.015-.05.034-.09.108-.236.138-.316.175-.458.04-.153.057-.43.033-.552a1.785 1.785 0 0 0-.091-.351l-.061-.129c-.106-.223-.414-.541-.608-.625a.672.672 0 0 1-.058-.029 1.232 1.232 0 0 0-.224-.09 2.618 2.618 0 0 1-.128-.04 9.159 9.159 0 0 0-.36-.12 2.569 2.569 0 0 1-.168-.058A3.181 3.181 0 0 0 8.72.568a5.755 5.755 0 0 1-.288-.096 5.069 5.069 0 0 0-.288-.095 3.196 3.196 0 0 1-.128-.041 4.46 4.46 0 0 0-.264-.09 2.662 2.662 0 0 1-.12-.038 8.26 8.26 0 0 0-.36-.12A.646.646 0 0 1 7.11.02c-.02-.024-.102-.029-.102-.006" fill="#f2ebe4"/><path d="M0 7.976c0 7.152.003 7.976.025 7.976.013 0 .029-.012.034-.027.006-.014.154-.167.329-.34.175-.172 1.508-1.501 2.963-2.953l2.645-2.64.043-.128c.023-.07.052-.15.064-.176a2.89 2.89 0 0 0 .09-.256 2.7 2.7 0 0 1 .093-.265.376.376 0 0 0 .026-.08.458.458 0 0 1 .033-.095.89.89 0 0 0 .043-.112c.034-.106.133-.391.18-.52.023-.062.049-.14.057-.173a.461.461 0 0 1 .031-.088 1.77 1.77 0 0 0 .094-.275c.007-.03.02-.07.031-.088.01-.018.04-.097.067-.176.026-.08.08-.238.121-.352a7.17 7.17 0 0 0 .096-.286.426.426 0 0 1 .037-.096.238.238 0 0 0 .026-.074.238.238 0 0 1 .026-.074.423.423 0 0 0 .037-.096c.012-.043.04-.13.064-.194.059-.162.025-.178-.223-.108a5.333 5.333 0 0 1-.36.09 2.42 2.42 0 0 0-.16.037 7.98 7.98 0 0 1-.264.065 13.199 13.199 0 0 0-.464.112 29.961 29.961 0 0 0-.368.088l-.144.035c-.214.053-.33.081-.4.096-.044.01-.127.03-.184.045a9.06 9.06 0 0 1-.264.064 6.85 6.85 0 0 0-.232.057c-.092.027-.144.032-.184.018-.025-.009-.26-.341-.384-.54a3.835 3.835 0 0 0-.064-.097 74.44 74.44 0 0 0-.776-1.166 41.534 41.534 0 0 1-.658-.992.144.144 0 0 0-.036-.047c-.014-.011-.026-.03-.026-.041 0-.011-.01-.029-.024-.04-.03-.026-.03-.048 0-.048.013 0 .285.087.604.194a122.212 122.212 0 0 0 .78.262c.062.024.178.062.288.095.04.012.097.03.128.041.17.06.257.09.688.231l.473.156.095-.024a1.32 1.32 0 0 1 .176-.034c.044-.006.13-.02.192-.033a13.123 13.123 0 0 1 .528-.096c.08-.013.17-.03.2-.04a.442.442 0 0 1 .101-.016c.025 0 .108-.014.184-.03.076-.017.186-.039.243-.048a20.924 20.924 0 0 0 .456-.082 27.229 27.229 0 0 1 .456-.083c.234-.04.263-.049.303-.093.05-.054.165-.422.21-.672l.03-.176c.056-.305.055-.95-.001-1.232l-.04-.208a2.747 2.747 0 0 0-.048-.216 4.203 4.203 0 0 0-.18-.528 5.374 5.374 0 0 0-.27-.555 22.976 22.976 0 0 1-.084-.133A4.098 4.098 0 0 0 7.14.163a.486.486 0 0 1-.068-.078.18.18 0 0 0-.04-.047L6.99 0H0ZM7.107.018a.49.49 0 0 0 .15.064c.078.025.165.054.191.064.026.01.08.027.12.04.04.01.108.033.152.048l.16.055.136.047c.03.01.088.03.128.041.11.033.226.071.288.095.06.023.17.06.288.096.137.043.232.074.256.086.013.007.089.032.168.057.131.041.192.062.36.12.03.012.088.03.128.041.072.02.178.063.224.09.013.008.04.02.058.029.194.084.502.402.608.625l.06.129c.027.056.059.176.092.351.024.122.007.4-.033.552a2.393 2.393 0 0 1-.175.458.444.444 0 0 0-.034.09c0 .01-.01.038-.023.063a1.98 1.98 0 0 0-.105.24c0 .013-.108.272-.152.365a.56.56 0 0 0-.033.092c-.006.024-.017.048-.025.053-.064.04.06.05.21.016.057-.013.194-.039.304-.058a9.44 9.44 0 0 0 .339-.065 1.41 1.41 0 0 1 .176-.03c.033 0 .114-.014.445-.08l.224-.04c.075-.012.186-.034.248-.047.062-.013.135-.025.163-.025a.32.32 0 0 0 .094-.016 1.5 1.5 0 0 1 .189-.04 11.482 11.482 0 0 0 .53-.097c.062-.013.13-.023.153-.023a.64.64 0 0 0 .13-.024c.05-.013.158-.034.24-.047.175-.029.283-.048.501-.09l.456-.082.248-.045c.148-.028.227-.042.456-.083.088-.015.332-.06.496-.092a9.6 9.6 0 0 1 .196-.035L16 2.988V0h-4.45C8.276 0 7.104.005 7.108.018m8.854 3.25c-.005.02-.015.086-.024.148a3.425 3.425 0 0 1-.04.224 1.079 1.079 0 0 0-.025.162c0 .027-.01.078-.022.112a.97.97 0 0 0-.033.172c-.007.06-.021.144-.033.184a1.27 1.27 0 0 0-.032.17 1.42 1.42 0 0 1-.032.176 1.37 1.37 0 0 0-.032.176.974.974 0 0 1-.026.148c-.01.03-.027.116-.039.192a22.882 22.882 0 0 1-.053.316c-.03.167-.041.233-.081.44-.016.078-.032.175-.096.544-.01.057-.029.15-.042.208-.012.057-.03.16-.04.23a1.16 1.16 0 0 1-.031.162.78.78 0 0 0-.024.139c-.006.055-.02.133-.032.173a1.19 1.19 0 0 0-.032.176c-.006.057-.02.14-.032.184a1.382 1.382 0 0 0-.032.176 1.16 1.16 0 0 1-.032.168 1.15 1.15 0 0 0-.031.176.987.987 0 0 1-.026.154 2.027 2.027 0 0 0-.04.192 13.484 13.484 0 0 1-.081.454 4.84 4.84 0 0 0-.039.232 1.25 1.25 0 0 1-.03.16 1.362 1.362 0 0 0-.033.168 3.747 3.747 0 0 1-.04.232 6.988 6.988 0 0 1-.122.52.816.816 0 0 0-.03.13c0 .024-.013.067-.08.254-.01.03-.029.094-.04.14a.445.445 0 0 1-.036.105.334.334 0 0 0-.033.083 1.265 1.265 0 0 1-.1.27.066.066 0 0 0-.015.041.272.272 0 0 1-.032.085.3.3 0 0 0-.032.077.55.55 0 0 1-.04.104 8.824 8.824 0 0 1-.386.775c-.009.02-.069.125-.19.333a7.901 7.901 0 0 1-.272.412 2.28 2.28 0 0 1-.085.12c-.01.013-.052.066-.091.119a4.932 4.932 0 0 1-.145.188 4.843 4.843 0 0 1-.261.314l-.104.12a10.256 10.256 0 0 1-.873.842 1.577 1.577 0 0 1-.119.096 2.302 2.302 0 0 0-.143.116.452.452 0 0 1-.076.06c-.008 0-.078.051-.215.156-.057.044-.455.302-.565.366l-.192.113c-.032.019-.14.075-.239.125a.877.877 0 0 0-.18.105c0 .01 1.14.015 2.96.015H16V9.616c0-5.973-.003-6.511-.04-6.348m-1.93 1.324a.735.735 0 0 1-.144.04 4.03 4.03 0 0 0-.373.09.925.925 0 0 1-.145.03.668.668 0 0 0-.128.03 2.24 2.24 0 0 1-.175.047c-.151.032-.24.053-.32.076a6.147 6.147 0 0 1-.404.094 1.2 1.2 0 0 0-.144.039.871.871 0 0 1-.132.033 3.76 3.76 0 0 0-.368.089 1.16 1.16 0 0 1-.152.032.448.448 0 0 0-.108.026.608.608 0 0 1-.12.032 2.35 2.35 0 0 0-.172.038 8.713 8.713 0 0 1-.568.137c-.048.01-.13.033-.18.05a.61.61 0 0 1-.14.029.337.337 0 0 0-.107.024.79.79 0 0 1-.14.038 3.85 3.85 0 0 0-.377.09c-.04.012-.1.027-.136.033-.106.018-.1.01-.283.463-.018.044-.046.11-.063.146a.358.358 0 0 0-.03.085.19.19 0 0 1-.023.063 2.09 2.09 0 0 0-.066.146 5.22 5.22 0 0 1-.073.17.376.376 0 0 0-.03.082c0 .01-.01.038-.023.063a1.85 1.85 0 0 0-.098.229.297.297 0 0 1-.033.072.125.125 0 0 0-.022.056.22.22 0 0 1-.025.072 1.923 1.923 0 0 0-.065.152 3.277 3.277 0 0 1-.07.168 9.27 9.27 0 0 0-.132.32 2.68 2.68 0 0 1-.062.146.34.34 0 0 0-.03.09c0 .013-.01.033-.024.044a.07.07 0 0 0-.024.046.412.412 0 0 1-.04.106.433.433 0 0 0-.04.104.13.13 0 0 1-.022.056.268.268 0 0 0-.03.064c-.01.032-.123.312-.163.4a4.795 4.795 0 0 0-.057.136l-.066.154a.352.352 0 0 0-.03.088.192.192 0 0 1-.032.07.193.193 0 0 0-.032.07c0 .021-.01.044-.086.213a.52.52 0 0 0-.042.115c0 .013-.007.028-.015.033a.181.181 0 0 0-.033.07c-.02.064-.068.176-.105.248a.215.215 0 0 0-.023.064c0 .01-.012.04-.025.067a1.056 1.056 0 0 0-.046.104 11.109 11.109 0 0 1-.217.528l-.066.154a.367.367 0 0 0-.03.084c0 .01-.014.045-.032.078a.277.277 0 0 0-.032.082c0 .048-.07.133-.157.188l-.171.11-.223.146a4.151 4.151 0 0 1-.16.102 2.2 2.2 0 0 0-.113.07l-.16.104a.809.809 0 0 0-.072.05 7.648 7.648 0 0 0-.331.21 34.821 34.821 0 0 1-.701.452l-.16.104a.846.846 0 0 0-.085.062c-.012.011-.028.02-.035.02-.008 0-.078.042-.155.094a15.685 15.685 0 0 1-.237.155 47.607 47.607 0 0 0-.62.399 2.316 2.316 0 0 0-.214.134 15.685 15.685 0 0 1-.238.155 74.772 74.772 0 0 0-.672.43l-.237.155a1.262 1.262 0 0 1-.154.094c-.007 0-.023.012-.034.026a.156.156 0 0 1-.056.038 1.553 1.553 0 0 0-.165.103 2.159 2.159 0 0 1-.137.089c-.003 0-.096.06-.206.132-.192.127-.397.258-.455.292a55.37 55.37 0 0 1-.356.23 57.44 57.44 0 0 0-.297.192 5.666 5.666 0 0 1-.276.17c-.063.035-.114.073-.115.084 0 .016 1.002.02 4.96.02 2.728 0 4.96-.004 4.96-.01 0-.005-.12-.19-.268-.41-.147-.222-.271-.41-.275-.42a1.042 1.042 0 0 0-.068-.1.792.792 0 0 1-.061-.09 1.92 1.92 0 0 0-.091-.14 158.82 158.82 0 0 1-1.182-1.775c-.048-.054.065-.036.265.04.059.023.167.06.288.097.128.04.23.075.28.096a.655.655 0 0 0 .104.032c.03.007.063.017.072.023.009.006.08.032.16.056.131.041.197.064.36.121.03.01.085.028.12.038.059.017.111.035.264.09a3.196 3.196 0 0 0 .128.041c.11.033.226.071.288.095.06.023.17.06.288.096a2.8 2.8 0 0 1 .267.091c.06.029.287-.186.573-.539.079-.097.148-.18.154-.184.047-.036.57-.788.66-.952l.065-.112c.021-.035.13-.248.24-.472l.226-.453a.215.215 0 0 0 .023-.065c0-.01.014-.045.032-.078a.284.284 0 0 0 .032-.08.26.26 0 0 1 .03-.076.516.516 0 0 0 .042-.112.253.253 0 0 1 .024-.072c.017-.021.09-.241.105-.312a.232.232 0 0 1 .026-.075.456.456 0 0 0 .037-.112 5.213 5.213 0 0 1 .084-.317c.013-.044.029-.112.036-.152a3.12 3.12 0 0 1 .036-.168 4.91 4.91 0 0 0 .058-.296l.058-.336c.013-.075.031-.197.041-.272.01-.074.02-.14.025-.147a1.89 1.89 0 0 0 .03-.177c.027-.212.068-.47.096-.612.012-.062.026-.159.032-.216.005-.057.02-.144.031-.192.012-.048.03-.15.04-.224a7.65 7.65 0 0 1 .082-.524c.017-.09.031-.186.031-.213 0-.027.01-.097.024-.156.013-.059.035-.186.05-.283.058-.41.068-.473.092-.591.014-.068.026-.147.026-.174 0-.027.014-.125.031-.218a9.91 9.91 0 0 0 .067-.401c.007-.03-.091-.04-.133-.016" fill="#53231b"/></g></svg>